<svg width="157" height="314" viewBox="0 0 157 314" fill="none" xmlns="http://www.w3.org/2000/svg">
<g clip-path="url(#clip0_4_240)">
<path d="M157 314C243.709 314 314 243.709 314 157C314 70.2913 243.709 0 157 0C70.2913 0 0 70.2913 0 157C0 243.709 70.2913 314 157 314Z" fill="#182144"/>
<path d="M310.477 188.542L258.335 136.811L226.407 163.675L159.292 96.5605L48.2241 213.958L148.026 313.761C150.881 313.915 153.754 314 156.647 314C232.553 314 295.876 260.134 310.477 188.542Z" fill="#003A71"/>
<path d="M50.3964 141.888L122.111 72.8173C122.111 72.8173 138.674 56.9585 157 72.8173V144.181L139.556 179.07L50.3964 141.888Z" fill="#003A71"/>
<path d="M191.889 161.62H122.111V196.509H191.889V161.62Z" fill="#194263"/>
<path d="M191.889 161.62H156.651V196.509H191.889V161.62Z" fill="#273359"/>
<path d="M87.222 231.398C116.125 231.398 139.555 207.967 139.555 179.065C139.555 150.162 116.125 126.732 87.222 126.732C58.3193 126.732 34.8889 150.162 34.8889 179.065C34.8889 207.967 58.3193 231.398 87.222 231.398Z" fill="#182144"/>
<path d="M87.2221 213.954C106.491 213.954 122.111 198.333 122.111 179.065C122.111 159.796 106.491 144.176 87.2221 144.176C67.9534 144.176 52.3331 159.796 52.3331 179.065C52.3331 198.333 67.9534 213.954 87.2221 213.954Z" fill="#8FA5C9"/>
<path d="M157 171.933C152.183 171.933 148.278 168.028 148.278 163.211V74.4033C148.278 69.5866 152.183 65.6812 157 65.6812C161.817 65.6812 165.722 69.5866 165.722 74.4033V163.211C165.722 168.028 161.817 171.933 157 171.933Z" fill="#273359"/>
<path d="M157 65.6812C156.882 65.6812 156.765 65.6941 156.648 65.699V171.916C156.765 171.92 156.882 171.933 157 171.933C161.817 171.933 165.722 168.028 165.722 163.211V74.4033C165.722 69.5866 161.817 65.6812 157 65.6812Z" fill="#121149"/>
<path d="M157 189.637C167.802 189.637 176.559 180.88 176.559 170.078C176.559 159.276 167.802 150.519 157 150.519C146.198 150.519 137.441 159.276 137.441 170.078C137.441 180.88 146.198 189.637 157 189.637Z" fill="#181854"/>
<path d="M157 150.524C156.882 150.524 156.766 150.54 156.648 150.542V189.624C156.766 189.626 156.882 189.642 157 189.642C167.802 189.642 176.559 180.885 176.559 170.083C176.559 159.281 167.802 150.524 157 150.524Z" fill="#0B0B38"/>
</g>
<defs>
<clipPath id="clip0_4_240">
<rect width="314" height="314" fill="white"/>
</clipPath>
</defs>
</svg>
