<svg width="14" height="14" viewBox="0 0 14 14" fill="none" xmlns="http://www.w3.org/2000/svg">
<path d="M5.6875 7C5.6875 6.27515 6.27515 5.6875 7 5.6875C7.72485 5.6875 8.3125 6.27515 8.3125 7C8.3125 7.72485 7.72485 8.3125 7 8.3125C6.27515 8.3125 5.6875 7.72485 5.6875 7Z" fill="#13BD6B"/>
<path fill-rule="evenodd" clip-rule="evenodd" d="M1.16666 7C1.16666 7.95631 1.41455 8.27837 1.91034 8.92249C2.9003 10.2086 4.56055 11.6667 6.99999 11.6667C9.43943 11.6667 11.0997 10.2086 12.0896 8.92249C12.5854 8.27837 12.8333 7.95631 12.8333 7C12.8333 6.04368 12.5854 5.72164 12.0896 5.07752C11.0997 3.79141 9.43943 2.33333 6.99999 2.33333C4.56055 2.33333 2.9003 3.79141 1.91034 5.07752C1.41455 5.72164 1.16666 6.04368 1.16666 7ZM6.99999 4.81249C5.79187 4.81249 4.81249 5.79187 4.81249 7C4.81249 8.20814 5.79187 9.1875 6.99999 9.1875C8.20813 9.1875 9.18749 8.20814 9.18749 7C9.18749 5.79187 8.20813 4.81249 6.99999 4.81249Z" fill="#13BD6B"/>
</svg>
