<svg width="65" height="81" viewBox="0 0 65 81" fill="none" xmlns="http://www.w3.org/2000/svg">
<path d="M36.1586 10.9214C36.1586 11.4673 37.3596 11.9041 38.8882 11.9041C40.4168 11.9041 41.6178 11.6857 41.6178 11.4673C41.6178 11.2489 40.4168 10.8122 38.8882 10.5938C37.3596 10.2663 36.1586 10.4847 36.1586 10.9214Z" fill="#ECECC1"/>
<path d="M42.7097 12.6685C42.7097 13.1052 43.9107 14.0878 45.4393 14.8521C46.9678 15.5072 47.9505 15.6164 47.5138 15.0705C46.6403 13.6511 42.7097 11.6858 42.7097 12.6685Z" fill="#ECECC1"/>
<path d="M55.4842 19.4377C55.8118 20.7479 56.4669 21.7306 57.0128 21.7306C58.5414 21.7306 58.2138 19.9836 56.4669 18.5642C55.1567 17.4724 55.0475 17.6908 55.4842 19.4377Z" fill="#ECECC1"/>
<path d="M7.11555 21.0755C6.78799 21.9489 6.67881 23.8051 6.89718 25.2245C7.22473 27.0806 7.4431 26.6439 7.87984 23.5867C8.42576 19.4377 8.0982 18.455 7.11555 21.0755Z" fill="#ECECC1"/>
<path d="M56.5759 24.6784C56.1392 25.0059 55.8116 26.8621 55.9208 28.7182L56.03 32.1029L57.0127 28.3906C58.1045 24.7876 57.8861 23.259 56.5759 24.6784Z" fill="#ECECC1"/>
<path d="M9.51763 27.8448C8.75334 29.9193 8.64415 38.6541 9.40844 37.8898C9.95436 37.3439 10.937 26.0979 10.3911 26.0979C10.2819 26.0979 9.84518 26.8622 9.51763 27.8448Z" fill="#ECECC1"/>
<path d="M11.2646 40.6193C11.1554 42.2571 12.0289 45.6418 13.3391 48.153C15.7411 52.9571 25.4585 63.2205 27.4238 63.2205C28.1881 63.2205 27.9697 62.5654 26.9871 61.5827C26.1136 60.7092 24.9126 59.9449 24.3667 59.9449C23.2748 59.9449 18.6891 55.25 18.6891 54.049C18.6891 53.6123 17.7064 52.302 16.5054 50.9918C15.3044 49.6816 14.3217 47.7163 14.3217 46.6245C14.3217 45.5326 13.885 44.6592 13.3391 44.6592C12.684 44.6592 12.0289 43.0214 11.8105 41.0561C11.4829 37.8897 11.3737 37.7806 11.2646 40.6193Z" fill="#ECECC1"/>
<path d="M52.8636 40.292C53.1912 41.493 52.9728 42.8032 52.4269 43.1308C51.881 43.4583 51.4442 44.6594 51.4442 45.8604C51.4442 46.9522 51.0075 47.9349 50.3524 47.9349C49.8065 47.9349 49.2605 48.59 49.2605 49.4635C49.2605 50.2278 48.0595 51.8655 46.5309 52.9574C45.0024 54.0492 43.8013 55.5778 43.8013 56.3421C43.8013 57.8706 40.0891 60.1635 39.1064 59.29C38.7789 58.9625 38.2329 59.1809 37.7962 59.836C37.4687 60.4911 37.9054 61.037 38.9972 61.037C39.9799 61.037 42.9279 58.8533 45.4391 56.1237C51.9901 49.2451 57.0126 38.1083 53.5187 38.1083C52.8636 38.1083 52.5361 39.091 52.8636 40.292Z" fill="#ECECC1"/>
<path d="M42.7097 60.6003C42.7097 61.1462 41.6179 62.1289 40.3077 62.6748C38.4515 63.4391 37.7964 64.7493 37.5781 67.5881L37.4689 71.4095L38.3423 67.5881C38.7791 65.5136 39.2158 64.2034 39.325 64.6401C39.325 65.0769 40.526 64.5309 41.8362 63.2207C43.1464 62.0197 43.8016 60.7095 43.474 60.2728C43.0373 59.9452 42.7097 60.0544 42.7097 60.6003Z" fill="#ECC140"/>
<path d="M53.9558 45.5328C52.9731 47.1706 53.0823 47.6073 54.2833 47.6073C55.1568 47.6073 55.8119 46.6246 55.8119 45.5328C55.8119 44.441 55.7027 43.5675 55.4844 43.5675C55.3752 43.5675 54.7201 44.441 53.9558 45.5328Z" fill="#ECC140"/>
<path d="M4.49524 26.753C4.49524 27.4081 4.82279 28.2816 5.25953 28.7184C5.69626 29.1551 5.91463 31.7755 5.80545 34.6143C5.58708 38.4357 5.80545 39.3092 6.56974 38.1082C8.2075 35.7061 7.98913 30.2469 6.133 27.8449C5.25953 26.6439 4.49524 26.2071 4.49524 26.753Z" fill="#ECC140"/>
<path d="M13.8851 13.5418C12.5749 14.5245 10.7188 14.852 8.97182 14.4153C7.44324 14.0877 6.46058 14.1969 6.89732 14.6337C7.33406 15.0704 7.11569 16.4898 6.46058 17.8C5.36874 19.8745 5.36874 19.9837 7.11569 18.5643C8.09835 17.6908 11.2647 15.8347 14.1035 14.5245C16.9423 13.1051 18.4708 12.0132 17.5974 12.0132C16.7239 12.0132 14.9769 12.6683 13.8851 13.5418Z" fill="#ECC140"/>
<path d="M35.7219 8.30101C36.7045 9.0653 38.0148 9.39285 38.4515 9.0653C40.3076 7.97345 39.4341 6.9908 36.7045 6.9908C34.3025 6.9908 34.1933 7.09998 35.7219 8.30101Z" fill="#ECC140"/>
<path d="M30.4811 20.6387C21.8555 23.2592 18.2524 28.5 20.7637 35.051C21.3096 36.5796 21.528 38.2174 21.2004 38.5449C20.7637 38.8725 21.0912 39.2 21.7463 39.2C22.5106 39.2 23.0566 39.9643 23.0566 40.8378C23.0566 41.7113 23.8208 42.4756 24.6943 42.4756C25.5678 42.4756 26.3321 43.1307 26.3321 44.0042C26.3321 44.8776 27.0964 45.7511 27.9698 46.0787C29.1709 46.6246 29.4984 48.6991 29.3892 55.0318C29.28 59.6175 28.8433 63.5481 28.2974 63.8757C27.7515 64.2032 27.4239 66.3869 27.6423 68.6798C27.7515 70.9726 28.2974 72.6104 28.8433 72.2828C29.3892 71.9553 29.6076 70.7543 29.28 69.6624C28.9525 68.5706 29.1709 67.2604 29.826 66.9328C30.3719 66.6053 30.5903 65.6226 30.2627 64.7491C29.9352 63.9849 30.4811 62.5655 31.3545 61.5828C32.3372 60.7093 32.7739 59.0716 32.5556 57.9797C32.1188 56.2328 32.0097 56.2328 31.9005 57.9797C31.9005 59.0716 31.4637 59.945 31.027 59.945C30.4811 59.945 30.1535 56.1236 30.1535 51.5379C30.1535 44.9868 30.4811 42.9123 31.7913 42.3664C34.5209 41.1654 36.1587 43.349 34.9576 46.4062C33.7566 49.6817 33.6474 56.342 34.8484 56.9971C35.2852 57.3246 35.5035 55.4685 35.2852 53.0664C34.9576 47.7164 36.8138 43.4582 40.3077 41.9297C41.6179 41.3837 42.4913 40.1827 42.1638 39.4184C41.8362 38.6541 42.0546 38.2174 42.6005 38.5449C44.8934 40.0735 45.7669 30.2469 43.6924 25.7704C41.727 21.5122 35.6127 19.1102 30.4811 20.6387ZM40.7444 23.6959C42.273 25.0061 42.3822 25.6612 41.3995 26.8622C40.7444 27.7357 39.9801 30.4653 39.7617 32.9766C39.5434 35.9245 38.5607 38.2174 37.1413 39.4184C35.8311 40.5103 35.176 41.3837 35.7219 41.3837C36.1587 41.3837 37.4689 40.6194 38.5607 39.5276C41.0719 37.2347 41.0719 38.2174 38.4515 41.2745C36.7046 43.2399 36.2678 43.349 35.176 42.0388C34.4117 41.1654 33.1015 40.7286 32.228 41.0562C29.6076 42.0388 25.2402 38.3266 25.1311 35.051L24.9127 32.1031L24.4759 35.1602C24.1484 37.3439 24.5851 38.7633 26.0045 39.8552C27.7515 41.1654 27.7515 41.2745 26.2229 41.3837C24.2576 41.3837 20.8729 34.2868 20.8729 30.3561C20.8729 29.1551 22.1831 26.9714 23.8208 25.4428C28.7341 20.8571 36.5954 19.9836 40.7444 23.6959ZM42.9281 29.5918C41.9454 30.5745 41.9454 31.2296 43.0373 32.5398C44.2383 34.0684 44.1291 34.0684 42.4913 32.7582C40.9628 31.6663 40.8536 30.9021 41.727 29.1551C42.3822 27.9541 43.1464 27.299 43.5832 27.6265C43.9107 28.0633 43.5832 28.9367 42.9281 29.5918Z" fill="#151515"/>
<path d="M21.7463 33.5225C22.2922 34.5051 23.0565 36.1429 23.3841 37.0164C23.7116 37.999 24.0392 37.4531 24.0392 35.8153C24.1483 34.1776 23.3841 32.649 22.5106 32.2122C21.2004 31.7755 21.0912 31.9939 21.7463 33.5225Z" fill="#151540"/>
<path d="M16.0688 56.451C18.0341 59.9449 24.9127 64.9674 26.1138 63.7664C26.4413 63.4388 26.1138 63.2204 25.3495 63.2204C24.6944 63.2204 21.7464 60.9276 19.0168 57.9796C14.5403 53.5031 14.2127 53.2847 16.0688 56.451Z" fill="#ECC140"/>
<path d="M31.5729 21.8397C30.8086 22.3857 31.5729 23.1499 34.0841 24.2418C38.1239 25.8796 39.4342 25.6612 39.4342 23.4775C39.4342 21.7306 33.6474 20.6387 31.5729 21.8397Z" fill="#151540"/>
<path d="M11.0463 47.6073C11.0463 48.1532 11.8106 49.5726 12.684 50.7736C14.1034 52.739 14.2126 52.739 13.5575 50.3369C13.0116 47.9349 11.0463 45.8604 11.0463 47.6073Z" fill="#ECC140"/>
<path d="M36.7046 25.0061C36.377 25.4428 36.8138 26.4255 37.6872 27.0806C38.7791 28.0632 39.4342 27.9541 40.526 26.6439C41.2903 25.7704 41.727 25.0061 41.5087 24.8969C38.124 24.2418 37.1413 24.2418 36.7046 25.0061Z" fill="#151515"/>
<path d="M26.3321 24.7877C24.8035 25.7703 23.4933 27.0806 23.3841 27.7357C23.275 28.2816 22.9474 29.8102 22.5107 31.0112C22.1831 32.2122 22.729 31.5571 23.9301 29.4826C25.0219 27.5173 27.2056 25.1152 28.625 24.351C30.0444 23.5867 30.8087 22.9316 30.1536 22.8224C29.6076 22.8224 27.8607 23.6958 26.3321 24.7877Z" fill="#151515"/>
<path d="M31.2454 42.4757C30.0444 42.9124 28.625 43.0216 28.079 42.694C27.5331 42.3665 27.4239 42.694 27.8607 43.4583C28.2974 44.1134 29.0617 44.441 29.6076 44.1134C30.1535 43.7859 30.4811 46.1879 30.3719 49.5726C30.2627 53.5033 30.5903 55.6869 31.5729 56.1237C33.1015 56.6696 33.4291 61.037 31.9005 61.037C31.3546 61.037 30.5903 63.3298 30.1535 66.1686C29.7168 69.1166 28.9525 72.0646 28.2974 72.7197C26.6596 74.685 28.1882 79.3799 30.6995 80.1442C31.7913 80.4717 33.8658 80.2534 35.176 79.5983C36.923 78.6156 37.3597 77.633 36.8138 75.4493C36.377 73.8115 36.0495 69.8809 36.0495 66.7145C36.0495 63.6574 35.5036 61.037 35.0668 61.037C34.0842 61.037 34.3025 48.1532 35.3944 44.0042C36.0495 41.6022 34.8485 41.1654 31.2454 42.4757Z" fill="#151540"/>
<path d="M29.6076 10.8122C29.6076 11.3582 28.4066 11.9041 26.878 11.9041C25.3494 11.9041 24.1484 12.3408 24.1484 12.9959C24.1484 13.5418 23.3841 14.0878 22.5106 14.0878C20.2178 14.0878 15.5228 21.6215 13.6667 28.3909C11.9198 35.2695 11.7014 43.1307 13.23 44.1134C13.8851 44.441 14.3218 45.642 14.3218 46.7338C14.3218 47.7165 15.3045 49.6818 16.5055 50.992C17.7065 52.3022 18.6892 53.7216 18.6892 54.2675C18.6892 55.5777 23.4933 59.9451 25.0219 59.9451C25.7862 59.9451 26.3321 60.3818 26.3321 61.0369C26.3321 61.5829 26.878 62.1288 27.4239 62.1288C28.079 62.1288 28.5158 60.491 28.5158 58.5257C28.4066 55.2502 28.4066 55.141 26.878 57.1063C25.4586 59.0716 25.2402 59.0716 25.2402 57.4339C25.2402 56.342 26.0045 55.2502 26.878 54.9226C29.1709 54.0492 28.9525 52.193 26.6596 52.9573C24.8035 53.5032 24.8035 53.5032 26.6596 52.3022C28.9525 50.7736 29.0617 48.044 26.878 47.2797C26.0045 46.843 25.5678 46.1879 25.8953 45.642C26.2229 45.0961 26.1137 44.1134 25.677 43.3491C25.131 42.5848 24.3668 42.8032 23.2749 44.2226C21.8555 46.0787 21.7463 46.0787 22.2923 44.3318C23.0565 42.2573 19.8902 34.6144 18.6892 35.3787C16.8331 36.4705 21.7463 22.9317 24.1484 19.9837C26.5504 17.1449 27.7515 16.599 33.1015 16.3806C38.6699 16.1623 39.5434 16.3806 42.9281 19.547L46.5311 23.0409L42.9281 20.2021C38.3423 16.7082 31.7913 16.3806 26.6596 19.547C24.6943 20.748 23.0565 22.0582 23.0565 22.3857C23.0565 22.7133 24.2576 22.2766 25.7862 21.2939C27.2055 20.3112 30.2627 19.547 32.4464 19.547C44.3475 19.547 50.025 33.195 41.5087 41.6022C37.2505 45.9695 36.1586 48.1532 36.1586 52.8481C36.1586 56.2328 36.377 56.6696 38.124 55.6869C39.5434 54.9226 40.3076 55.141 41.2903 56.9971C42.4913 59.3992 42.6005 59.3992 43.3648 57.2155C43.8015 56.0145 45.3301 54.0492 46.7495 52.8481C48.1689 51.6471 49.2607 50.0093 49.2607 49.2451C49.2607 48.4808 49.8067 47.9348 50.3526 47.9348C51.0077 47.9348 51.4444 46.9522 51.4444 45.8603C51.4444 44.6593 51.8812 43.4583 52.3179 43.1307C52.8638 42.8032 53.0822 40.5103 52.973 37.8899C52.8638 35.2695 53.0822 33.8501 53.3006 34.5052C54.174 36.9072 55.921 36.0338 55.7026 33.4133C55.2659 28.0633 55.8118 22.7133 56.9036 23.3684C57.5587 23.696 57.9955 23.4776 57.9955 22.9317C57.9955 22.2766 57.2312 21.7306 56.2485 21.7306C55.1567 21.7306 54.72 21.0755 55.0475 20.2021C55.4842 19.2194 54.8291 18.7827 53.3006 18.8919C51.9904 19.001 49.6975 18.0184 48.2781 16.599C46.8587 15.1796 45.0026 14.0878 44.1291 14.0878C42.9281 14.0878 43.2556 14.7429 45.0026 16.3806L47.623 18.5643L44.675 16.8174C42.9281 15.7255 41.9454 14.4153 42.3821 13.4326C42.8189 12.3408 42.0546 11.9041 39.5434 11.9041C37.6872 11.9041 36.1586 11.3582 36.1586 10.8122C36.1586 10.1571 34.7393 9.72039 32.8831 9.72039C31.1362 9.72039 29.6076 10.1571 29.6076 10.8122ZM32.8831 12.9959C29.1709 14.1969 26.3321 14.1969 29.0617 12.9959C30.2627 12.45 32.228 12.1224 33.429 12.1224C35.176 12.1224 35.0668 12.3408 32.8831 12.9959ZM49.9159 33.7409C49.8067 35.4878 49.2607 37.2348 48.7148 37.4532C47.9505 37.6715 47.7322 36.4705 47.9505 34.1776C48.4965 29.5919 50.1342 29.2644 49.9159 33.7409ZM44.8934 46.2971C44.8934 48.6991 44.675 48.9175 43.3648 47.7165C42.273 46.7338 42.1638 45.8603 42.9281 44.8777C44.5658 43.0216 44.8934 43.2399 44.8934 46.2971ZM42.7097 51.7563C42.7097 52.7389 42.0546 53.0665 41.0719 52.7389C40.1985 52.3022 39.7617 51.6471 40.0893 51.1012C40.9628 49.5726 42.7097 50.0093 42.7097 51.7563Z" fill="#ECECEC"/>
<path d="M12.7932 19.7652C11.5922 21.6214 10.6095 25.6612 10.3912 28.7184L10.1728 34.2867L11.8106 28.9367C12.684 25.9887 14.3218 21.9489 15.5228 19.9836C18.2524 15.0703 15.632 14.852 12.7932 19.7652Z" fill="#ECECEC"/>
<path d="M9.08096 19.7654C8.31667 20.5297 7.77075 22.0582 7.77075 23.2593C7.87994 25.2246 8.0983 25.1154 9.5177 22.495C11.3738 19.1103 11.1555 17.6909 9.08096 19.7654Z" fill="#ECECEC"/>
<path d="M29.6077 27.0808C28.7342 27.7359 27.7515 27.9542 27.3148 27.6267C26.8781 27.4083 26.1138 27.7359 25.677 28.391C25.2403 29.2645 25.3495 29.3736 26.1138 28.9369C27.8607 27.9542 27.7515 29.9196 26.1138 32.6492C24.3668 35.488 25.8954 38.2176 30.0444 39.7461C34.5209 41.2747 38.7791 38.5451 39.2159 33.8502C39.7618 27.9542 34.4118 24.1328 29.6077 27.0808ZM36.3771 31.0114C37.2505 32.9767 37.2505 34.3961 36.3771 36.1431C35.1761 38.5451 35.1761 38.5451 35.722 35.8155C36.4863 31.9941 33.8658 29.7012 31.3546 32.1032C29.3893 34.1777 29.1709 35.488 30.6995 36.4706C31.3546 36.7982 31.7913 36.5798 31.7913 35.8155C31.7913 35.0512 32.0097 34.7237 32.3373 35.0512C32.6648 35.3788 32.5556 36.4706 32.2281 37.5624C31.4638 39.3094 31.3546 39.3094 30.3719 37.5624C29.4985 36.0339 29.1709 35.9247 28.2974 37.1257C27.6423 38.2176 27.5332 37.7808 28.0791 35.9247C28.5158 34.3961 28.9526 32.3216 28.9526 31.339C28.9526 30.3563 29.3893 29.7012 29.7168 30.0287C30.1536 30.2471 30.8087 30.0287 31.2454 29.3736C32.4464 27.4083 35.0669 28.1726 36.3771 31.0114Z" fill="#ECECEC"/>
<path d="M15.632 6.99069C7.66159 10.7029 0.78299 14.1968 0.346253 14.5244C-0.963957 15.9438 1.76565 38.1082 3.18504 38.1082C3.62178 38.1082 4.05852 39.3092 4.05852 40.7286C4.1677 42.2572 6.2422 47.0613 8.75343 51.647C13.6667 60.4909 23.7117 70.6451 25.5678 68.7889C26.9872 67.3695 23.8209 62.5654 20.9821 61.5828C19.1259 61.0369 10.5004 49.0266 10.5004 46.9521C10.5004 46.6245 10.0636 45.6419 9.62691 44.8776C9.08099 44.2225 9.08099 43.0215 9.40854 42.4755C9.84528 41.8204 9.51772 40.5102 8.75343 39.6368C7.44322 38.1082 7.22486 38.1082 5.80546 39.9643C4.38607 41.8204 4.27688 41.8204 4.8228 39.7459C5.80546 36.252 5.91465 30.0286 5.15036 28.1724C4.49525 26.753 4.8228 24.0234 6.78812 16.2713C7.44322 13.9785 9.19017 12.8866 10.0636 14.306C10.6096 15.1795 11.7014 14.9611 13.6667 13.7601C15.1953 12.7774 17.379 11.904 18.4708 11.904C19.6719 11.904 21.2004 11.1397 21.9647 10.2662C22.729 9.28355 24.0392 8.73763 24.8035 9.06519C25.677 9.39274 26.0045 9.06519 25.5678 7.97334C25.1311 6.8815 25.5678 6.66314 26.7688 7.09987C27.9698 7.53661 28.5158 7.20906 28.5158 6.00803C28.5158 4.69782 29.0617 4.47945 31.1362 5.35292C32.5556 5.89884 34.0842 6.00803 34.4117 5.68047C34.7393 5.24374 35.0668 5.57129 35.0668 6.33558C35.0668 7.20906 35.9403 7.53661 37.2505 7.20906C38.6699 6.8815 39.4342 7.20906 39.4342 8.19171C39.4342 9.06519 40.0893 9.72029 40.9628 9.72029C41.8362 9.72029 44.3475 10.7029 46.422 12.0132C48.6057 13.3234 50.3526 13.9785 50.3526 13.6509C50.3526 12.5591 56.1394 15.8346 58.2139 18.0183C60.07 20.0928 61.271 27.6265 59.9608 28.8275C59.5241 29.2643 59.5241 30.3561 59.8516 31.3388C60.2884 32.4306 60.07 32.7582 59.3057 32.2122C58.4322 31.6663 57.9955 32.3214 57.9955 34.0684C57.9955 35.4878 57.6679 37.0163 57.2312 37.4531C56.3577 38.3265 56.2485 38.8725 56.0302 44.4409C55.921 46.4062 55.3751 47.8256 54.8292 47.3888C54.174 47.0613 52.5363 49.1358 51.1169 51.9746C49.5883 54.9225 46.2036 59.6175 43.3648 62.5654C38.2332 68.0246 36.5954 71.8461 40.3077 69.8808C43.9107 67.9155 54.6108 55.2501 57.2312 49.6817C64.4374 34.6143 67.4945 12.9958 62.3629 12.9958C61.8169 12.9958 55.2659 10.0478 47.7322 6.44477C40.1985 2.84169 33.1015 -0.106285 32.1188 0.00289917C31.027 0.00289917 23.6025 3.16924 15.632 6.99069Z" fill="#ECC115"/>
<path d="M36.1587 67.2605C35.8311 69.7717 35.9403 71.5187 36.4862 70.9728C37.0321 70.4268 37.2505 68.3523 37.0321 66.387C36.7046 62.784 36.5954 62.784 36.1587 67.2605Z" fill="#151515"/>
<path d="M26.6499 22.2317C24.1386 23.542 21.5182 25.6165 20.8631 26.8175C18.5702 31.0757 21.6274 42.8675 25.0121 42.8675C25.7764 42.8675 26.4315 43.4135 26.4315 44.0686C26.4315 44.7237 27.1958 45.9247 28.0693 46.7982C29.1611 47.9992 29.4887 50.0737 29.1611 54.1135C27.305 75.2952 27.1958 77.8065 28.6152 79.4442C30.3621 81.5187 34.5111 81.5187 36.2581 79.4442C37.6775 77.8065 37.3499 66.233 35.603 53.4584C34.9479 48.4359 35.057 48.1084 39.5336 43.8502C45.3204 38.2818 46.7398 33.6961 44.3377 27.8001C43.2459 24.743 41.4989 22.8868 38.9877 21.6858C34.1836 19.393 32.2183 19.5021 26.6499 22.2317ZM37.7867 27.4726C43.901 34.1328 36.2581 44.5053 28.6152 39.9196C24.7937 37.7359 23.4835 31.6216 25.9948 27.9093C28.0693 24.6338 35.057 24.4154 37.7867 27.4726Z" fill="black"/>
</svg>
