<svg width="16" height="19" viewBox="0 0 16 19" fill="none" xmlns="http://www.w3.org/2000/svg">
<path d="M6.37506 0.541656C5.89182 0.541656 5.50006 0.933411 5.50006 1.41666C5.50006 1.8999 5.89182 2.29166 6.37506 2.29166V0.541656ZM9.78762 2.29166C10.2709 2.29166 10.6626 1.8999 10.6626 1.41666C10.6626 0.933411 10.2709 0.541656 9.78762 0.541656V2.29166ZM6.06927 14.8556C6.06291 14.3725 5.66604 13.9859 5.18283 13.9923C4.69962 13.9986 4.31306 14.3955 4.31942 14.8787L6.06927 14.8556ZM8.08137 17.75L8.09327 16.8751C8.08534 16.875 8.0774 16.875 8.06935 16.8751L8.08137 17.75ZM11.8432 14.8787C11.8496 14.3955 11.463 13.9986 10.9798 13.9923C10.4966 13.9859 10.0997 14.3725 10.0934 14.8556L11.8432 14.8787ZM5.19321 15.7422C5.67645 15.7422 6.06821 15.3504 6.06821 14.8672C6.06821 14.3839 5.67645 13.9922 5.19321 13.9922V15.7422ZM3.91011 14.8672L3.90284 15.7422H3.91011V14.8672ZM1.82506 12.696L2.70006 12.7021V12.696H1.82506ZM2.89318 8.15532L3.75474 8.30804C3.75675 8.29672 3.75853 8.28541 3.7601 8.27397L2.89318 8.15532ZM8.08137 3.33816L8.11719 2.46389C8.09327 2.46291 8.06924 2.46291 8.04532 2.46389L8.08137 3.33816ZM13.2694 8.15182L12.4026 8.27094C12.404 8.28086 12.4055 8.29066 12.4071 8.30046L13.2694 8.15182ZM13.4969 9.78516L14.3622 9.65531L14.362 9.65391L13.4969 9.78516ZM14.3376 12.6925H13.4625L13.4626 12.699L14.3376 12.6925ZM12.2526 14.8648V15.7398H12.2598L12.2526 14.8648ZM10.9683 13.9898C10.4851 13.9898 10.0933 14.3816 10.0933 14.8648C10.0933 15.3481 10.4851 15.7398 10.9683 15.7398V13.9898ZM5.19321 13.9898C4.70995 13.9898 4.31821 14.3816 4.31821 14.8648C4.31821 15.3481 4.70995 15.7398 5.19321 15.7398V13.9898ZM10.9683 15.7398C11.4515 15.7398 11.8433 15.3481 11.8433 14.8648C11.8433 14.3816 11.4515 13.9898 10.9683 13.9898V15.7398ZM6.37506 2.29166H9.78762V0.541656H6.37506V2.29166ZM4.31942 14.8787C4.34671 16.9547 6.01579 18.6532 8.09327 18.6249L8.06935 16.8751C7.00022 16.8896 6.0844 16.007 6.06927 14.8556L4.31942 14.8787ZM8.06935 18.6249C10.1468 18.6532 11.8159 16.9547 11.8432 14.8787L10.0934 14.8556C10.0782 16.007 9.1624 16.8896 8.09327 16.8751L8.06935 18.6249ZM5.19321 13.9922H3.91011V15.7422H5.19321V13.9922ZM3.91736 13.9922C3.26074 13.9868 2.69505 13.4301 2.70006 12.7021L0.950086 12.6899C0.9387 14.3416 2.23931 15.7283 3.90284 15.7422L3.91736 13.9922ZM2.70006 12.696C2.70006 12.3728 2.80881 12.0388 2.99993 11.5657C3.17194 11.1399 3.43612 10.5506 3.53099 9.91851L1.80047 9.65811C1.74405 10.034 1.58782 10.3893 1.37734 10.9102C1.18599 11.3838 0.950063 11.9995 0.950063 12.696H2.70006ZM3.53099 9.91851C3.63866 9.20451 3.69039 8.67111 3.75474 8.30804L2.03161 8.00261C1.96856 8.35821 1.88389 9.10511 1.80047 9.65811L3.53099 9.91851ZM3.7601 8.27397C4.07164 5.99728 5.91911 4.30286 8.1173 4.21242L8.04532 2.46389C4.96897 2.59048 2.4484 4.95176 2.02625 8.03667L3.7601 8.27397ZM8.04544 4.21242C10.2426 4.30263 12.0898 5.99551 12.4026 8.27094L14.1363 8.03271C13.7124 4.9493 11.1923 2.59014 8.11719 2.46389L8.04544 4.21242ZM12.4071 8.30046C12.4719 8.67601 12.5236 9.20252 12.6318 9.91641L14.362 9.65391C14.2792 9.10779 14.1921 8.35331 14.1317 8.00319L12.4071 8.30046ZM12.6316 9.91501C12.7265 10.5471 12.9907 11.1364 13.1627 11.5622C13.3538 12.0353 13.4625 12.3693 13.4625 12.6925H15.2126C15.2126 11.996 14.9766 11.3803 14.7853 10.9067C14.5748 10.3858 14.4187 10.0312 14.3622 9.65531L12.6316 9.91501ZM13.4626 12.699C13.468 13.4274 12.9022 13.9845 12.2453 13.9898L12.2598 15.7398C13.9239 15.7259 15.2248 14.3382 15.2125 12.686L13.4626 12.699ZM12.2526 13.9898H10.9683V15.7398H12.2526V13.9898ZM5.19321 15.7398H10.9683V13.9898H5.19321V15.7398Z" fill="#091931"/>
</svg>
