<svg width="14" height="14" viewBox="0 0 14 14" fill="none" xmlns="http://www.w3.org/2000/svg">
<path d="M1.75 3.80556C1.75 3.57544 1.94058 3.38889 2.17568 3.38889H4.96876C4.97255 2.89818 5.02573 2.22545 5.51272 1.75974C5.89598 1.39323 6.42139 1.16667 7 1.16667C7.57861 1.16667 8.10402 1.39323 8.48727 1.75974C8.97423 2.22545 9.02743 2.89818 9.03122 3.38889H11.8243C12.0594 3.38889 12.25 3.57544 12.25 3.80556C12.25 4.03568 12.0594 4.22223 11.8243 4.22223H2.17568C1.94058 4.22223 1.75 4.03568 1.75 3.80556Z" fill="#CA1515"/>
<path fill-rule="evenodd" clip-rule="evenodd" d="M6.76409 12.8333H7.23589C8.85913 12.8333 9.67078 12.8333 10.1985 12.3166C10.7262 11.7997 10.7802 10.952 10.8881 9.25662L11.0437 6.81368C11.1023 5.89376 11.1316 5.43381 10.8668 5.14234C10.6021 4.85088 10.1551 4.85088 9.26099 4.85088H4.73901C3.8449 4.85088 3.39784 4.85088 3.1331 5.14234C2.86837 5.43381 2.89766 5.89376 2.95625 6.81368L3.11183 9.25662C3.21981 10.952 3.2738 11.7997 3.80151 12.3166C4.32922 12.8333 5.14084 12.8333 6.76409 12.8333ZM5.977 7.10996C5.95296 6.85685 5.73855 6.67222 5.49812 6.69754C5.2577 6.72286 5.08229 6.94849 5.10633 7.2016L5.39799 10.2717C5.42204 10.5248 5.63643 10.7095 5.87684 10.6842C6.11729 10.6589 6.2927 10.4332 6.26866 10.1801L5.977 7.10996ZM8.50184 6.69754C8.74229 6.72286 8.9177 6.94849 8.89366 7.2016L8.602 10.2717C8.57796 10.5248 8.36353 10.7095 8.12314 10.6842C7.88269 10.6589 7.70728 10.4332 7.73131 10.1801L8.02298 7.10996C8.04701 6.85685 8.26145 6.67222 8.50184 6.69754Z" fill="#CA1515"/>
</svg>
