<?xml version="1.0" standalone="no"?>
<!DOCTYPE svg PUBLIC "-//W3C//DTD SVG 20010904//EN"
 "http://www.w3.org/TR/2001/REC-SVG-20010904/DTD/svg10.dtd">
<svg version="1.0" xmlns="http://www.w3.org/2000/svg"
 width="496.000000pt" height="496.000000pt" viewBox="0 0 496.000000 496.000000"
 preserveAspectRatio="xMidYMid meet">
<metadata>
Created by potrace 1.14, written by Peter Selinger 2001-2017
</metadata>
<g transform="translate(0.000000,496.000000) scale(0.100000,-0.100000)"
fill="#000000" stroke="none">
<path d="M2430 4694 c-61 -29 -148 -69 -242 -113 -35 -16 -97 -44 -138 -64
-41 -19 -101 -46 -132 -61 -32 -14 -91 -41 -130 -59 -40 -19 -95 -44 -123 -57
-27 -13 -81 -37 -120 -55 -79 -36 -166 -77 -303 -141 -51 -24 -95 -44 -97 -44
-2 0 -50 -22 -107 -49 -121 -57 -222 -104 -297 -138 l-53 -24 6 -142 c7 -140
12 -213 21 -292 2 -22 7 -67 10 -100 8 -78 42 -290 62 -385 8 -41 19 -94 24
-117 19 -97 38 -165 100 -358 193 -605 512 -1109 935 -1475 99 -85 319 -240
342 -240 8 0 12 20 13 53 0 28 1 111 2 184 2 126 3 134 27 161 40 45 47 45 44
4 -1 -20 -5 -98 -8 -172 -4 -74 -9 -173 -12 -220 -13 -255 -13 -305 6 -361 68
-200 358 -215 451 -22 25 52 28 112 16 343 -3 74 -10 196 -13 270 -4 74 -8
175 -8 225 l-1 89 40 23 c22 12 55 23 73 23 43 0 103 -31 136 -71 l27 -31 -63
-45 c-35 -24 -80 -54 -100 -65 l-36 -21 1 -179 c0 -99 4 -181 9 -184 15 -9
180 98 293 190 152 124 317 295 445 461 63 82 210 298 210 310 0 3 15 29 33
58 81 126 236 479 300 682 70 221 137 511 162 695 3 25 8 56 10 70 4 26 8 60
24 200 6 47 13 141 16 210 4 69 8 148 9 176 l4 52 -92 43 c-50 23 -183 84
-296 136 -113 52 -232 107 -265 123 -33 15 -85 39 -115 53 -30 13 -113 52
-185 85 -71 33 -164 76 -205 95 -41 19 -169 78 -285 132 -115 53 -243 112
-283 131 -41 19 -77 34 -80 34 -4 0 -32 -12 -62 -26z m293 -450 c56 -25 122
-55 147 -66 25 -12 72 -33 105 -48 100 -45 157 -71 225 -103 36 -16 88 -40
116 -53 32 -14 65 -39 87 -66 113 -140 251 -440 322 -704 37 -134 67 -196 121
-243 l46 -40 -11 -53 c-7 -29 -16 -71 -22 -92 l-11 -39 -34 39 c-52 57 -78
121 -129 309 -122 445 -201 614 -368 783 -134 137 -341 238 -542 266 -22 3
-60 8 -85 12 -61 8 -243 8 -310 -1 -89 -11 -189 -42 -276 -85 -372 -183 -603
-617 -729 -1370 -21 -128 -93 -340 -116 -340 -8 0 -51 119 -57 159 -2 13 4 74
14 135 9 61 18 126 21 144 3 19 23 102 44 185 22 84 41 157 42 164 2 7 6 16
10 19 4 4 7 14 7 21 0 27 91 247 150 365 68 134 139 252 218 358 103 138 107
141 347 251 121 55 230 102 243 105 59 11 81 14 137 20 33 4 61 7 62 8 1 0 29
2 63 3 54 2 73 -3 163 -43z m37 -210 c240 -42 428 -150 557 -319 101 -133 166
-285 248 -580 88 -319 114 -378 207 -459 l50 -43 -17 -62 c-10 -33 -20 -61
-24 -61 -11 0 -86 54 -103 75 -44 52 -90 159 -105 245 -22 131 -62 295 -93
390 -156 477 -430 721 -824 733 -379 13 -688 -143 -848 -428 -61 -107 -115
-272 -133 -400 -6 -41 -11 -72 -21 -115 -3 -14 -7 -38 -10 -55 -3 -16 -23
-104 -45 -194 -64 -263 -143 -486 -216 -611 l-27 -45 -26 60 -27 60 23 30 c60
81 117 242 149 420 69 387 138 623 242 830 148 294 359 475 617 530 83 18 321
17 426 -1z m-1211 -186 c-92 -140 -179 -306 -243 -468 -49 -123 -101 -276
-111 -331 -3 -12 -9 -36 -14 -53 -6 -17 -12 -42 -15 -56 -26 -134 -45 -198
-47 -154 0 10 -2 26 -4 34 -7 29 -43 215 -50 253 -5 32 3 63 46 175 79 209
167 431 193 487 13 28 26 60 30 71 4 14 28 31 64 47 169 75 217 97 218 97 1 0
-29 -46 -67 -102z m1227 -8 c224 -38 412 -200 532 -460 64 -138 126 -345 158
-525 37 -213 128 -370 244 -421 43 -19 45 -24 27 -68 l-13 -29 -45 51 c-25 28
-73 91 -107 140 -33 48 -68 94 -76 101 -27 22 -81 17 -125 -12 -108 -72 -170
-240 -175 -480 -4 -180 26 -321 96 -450 l37 -67 -26 -31 -26 -31 -12 30 c-7
16 -30 94 -50 173 -48 187 -62 227 -92 267 -66 88 -146 75 -273 -44 -48 -44
-82 -72 -142 -117 l-38 -28 0 23 c0 17 25 41 101 98 273 201 466 458 545 725
24 80 27 107 28 245 1 182 -10 237 -79 376 -74 151 -205 276 -382 364 -43 21
-101 44 -128 51 -56 14 -221 17 -303 6 -190 -26 -373 -147 -467 -308 -20 -35
-45 -73 -55 -84 -10 -11 -36 -54 -58 -95 -35 -64 -50 -105 -69 -180 -2 -8 -8
-78 -12 -155 -10 -155 -37 -285 -96 -455 -47 -135 -140 -326 -206 -420 l-52
-73 -17 23 c-17 22 -16 24 27 86 93 133 184 383 262 719 17 72 33 144 35 160
3 17 8 41 11 55 4 14 9 45 12 70 10 85 61 265 96 341 123 261 339 406 647 435
36 4 66 8 68 9 6 5 142 -5 198 -15z m873 -18 l75 -37 28 -75 c31 -82 124 -363
159 -478 16 -56 20 -86 14 -127 -3 -30 -10 -57 -15 -60 -15 -9 -58 76 -80 160
-53 204 -155 462 -239 603 -17 29 -27 52 -23 52 4 -1 40 -18 81 -38z m-2449
-67 c0 -2 -23 -60 -51 -127 -28 -68 -52 -127 -53 -133 -2 -5 -6 -17 -9 -25 -4
-8 -17 -44 -30 -79 l-24 -64 -6 49 c-4 27 -9 105 -13 174 l-6 125 89 42 c88
42 103 47 103 38z m2773 -159 c-4 -73 -9 -153 -12 -166 -2 -6 -91 247 -98 277
l-5 22 59 -26 60 -26 -4 -81z m-1227 24 c48 -16 166 -74 208 -103 17 -12 65
-55 106 -97 131 -131 189 -284 187 -490 -2 -256 -118 -494 -356 -731 -53 -52
-125 -117 -161 -143 -60 -45 -65 -47 -68 -27 -2 14 6 29 22 42 14 11 26 26 26
34 0 7 28 33 63 58 34 25 83 67 110 93 47 48 107 131 107 147 0 5 15 24 33 43
111 117 180 317 172 496 -18 376 -324 670 -698 670 -98 -1 -109 5 -26 14 30 3
55 7 57 9 8 8 185 -4 218 -15z m-136 -270 c76 -20 158 -71 214 -131 91 -98
134 -220 122 -349 -7 -86 -27 -141 -78 -216 -54 -81 -87 -102 -42 -27 58 96
64 210 20 392 -18 78 -93 178 -160 214 -60 32 -200 31 -271 -3 -68 -33 -153
-121 -197 -207 -39 -72 -94 -229 -104 -293 -3 -19 -8 -39 -11 -44 -8 -13 -49
82 -58 134 -4 25 -9 52 -10 60 -6 37 65 229 99 266 6 7 25 31 41 54 39 55 135
123 208 148 65 22 152 23 227 2z m23 -206 c87 -45 141 -168 139 -315 -1 -90
-13 -124 -87 -233 -77 -115 -96 -135 -140 -142 -42 -6 -42 -9 11 66 88 125
131 273 104 356 -15 44 -73 94 -110 94 -64 0 -105 -33 -164 -130 -44 -72 -104
-225 -112 -284 l-7 -45 -31 21 c-57 39 -56 37 -21 176 18 70 40 147 49 172 46
125 143 243 218 267 50 16 115 15 151 -3z m-72 -301 c25 -65 -30 -196 -139
-330 -42 -53 -65 -57 -57 -10 17 100 77 245 134 325 36 49 48 52 62 15z m-678
-335 c-24 -153 -122 -371 -236 -523 -95 -127 -134 -165 -147 -145 -13 21 -13
22 13 50 103 111 243 395 307 620 12 41 24 82 27 90 8 27 42 -57 36 -92z
m1582 0 c35 -60 121 -173 171 -222 74 -74 13 -35 -77 49 -71 67 -82 73 -114
70 -20 -2 -46 -10 -59 -19 -30 -19 -65 -91 -76 -153 -5 -34 -8 -39 -9 -18 -1
49 27 166 54 221 23 48 69 104 84 104 4 0 15 -15 26 -32z m-1439 -213 c-13
-34 -34 -81 -46 -106 -57 -112 -190 -292 -261 -353 -19 -16 -57 -51 -85 -78
-69 -67 -78 -41 -12 32 155 172 276 379 329 563 l22 78 38 -37 38 -37 -23 -62z
m142 -20 c11 -13 25 -39 32 -57 7 -18 22 -42 32 -54 18 -21 18 -21 -105 -87
-68 -37 -127 -67 -130 -67 -4 0 5 17 19 37 31 46 100 188 109 226 9 33 18 34
43 2z m1315 -9 c18 -19 49 -48 69 -64 l37 -29 -51 -6 c-117 -14 -137 -112 -51
-250 22 -36 23 -57 3 -57 -11 0 -40 62 -65 139 -23 72 -25 212 -2 264 9 20 19
37 22 37 3 0 20 -16 38 -34z m-186 -108 c-3 -8 -6 -5 -6 6 -1 11 2 17 5 13 3
-3 4 -12 1 -19z m10 -71 c5 -73 32 -160 76 -249 42 -82 43 -87 27 -108 -17
-22 -17 -22 -40 26 -48 103 -69 190 -74 314 -3 74 6 89 11 17z m282 -58 c-19
-38 -22 -40 -33 -23 -8 11 -16 29 -20 42 -7 20 -4 22 34 22 l40 0 -21 -41z
m-1269 22 c0 -5 -32 -26 -72 -46 -78 -40 -195 -117 -243 -160 -16 -14 -45 -38
-64 -53 -40 -31 -52 -59 -38 -89 18 -40 57 -29 135 36 89 75 246 181 267 181
3 0 5 -20 5 -44 l0 -43 -150 -63 c-82 -35 -158 -72 -167 -82 -16 -18 -16 -22
-2 -46 8 -15 22 -28 31 -30 9 -2 76 21 148 51 l130 55 -1 -53 c-2 -49 -5 -56
-43 -87 -47 -38 -148 -138 -224 -220 -47 -51 -55 -56 -72 -45 -27 16 -25 23
10 55 78 72 99 133 59 173 -30 30 -105 22 -193 -19 -37 -18 -72 -29 -77 -26
-23 14 -5 37 46 60 63 29 80 61 50 94 -25 28 -44 25 -119 -15 -103 -54 -94
-26 30 94 97 95 121 112 214 157 58 28 155 79 215 113 113 63 125 68 125 52z
m735 -104 c8 -18 35 -108 59 -202 25 -93 54 -192 66 -218 21 -47 21 -49 4 -68
-18 -20 -18 -20 -36 13 -10 18 -25 58 -34 88 -39 133 -96 208 -173 228 -58 14
-110 5 -185 -33 -38 -19 -71 -33 -73 -31 -2 2 18 17 45 34 27 16 90 65 141
108 114 98 151 125 162 118 5 -2 15 -19 24 -37z m-106 -278 c27 -25 43 -58 70
-143 12 -38 33 -91 47 -118 21 -42 22 -49 9 -54 -10 -4 -33 10 -64 39 -26 25
-63 53 -81 62 -48 25 -136 30 -190 11 -24 -8 -45 -14 -46 -13 -2 1 -4 32 -6
69 -3 67 -2 68 32 93 71 54 153 87 192 77 9 -2 26 -13 37 -23z m-661 -245 c-3
-43 -9 -52 -86 -130 -46 -46 -89 -84 -95 -84 -7 0 -20 7 -30 14 -17 13 -9 23
94 130 61 64 113 116 116 116 2 0 2 -21 1 -46z m-418 -9 c-7 -9 -15 -13 -19
-10 -3 3 1 10 9 15 21 14 24 12 10 -5z"/>
</g>
</svg>
